<svg width="34" height="43" viewBox="0 0 34 43" fill="none" xmlns="http://www.w3.org/2000/svg">
<path d="M1.5 21.5V9C1.5 4.58172 5.08172 1 9.5 1H14.892M1.5 21.5V34C1.5 38.4183 5.08172 42 9.5 42H14.892M1.5 21.5L17.6494 9.13951C21.0939 6.50321 19.2295 1 14.892 1V1M1.5 21.5L17.6494 33.8605C21.0939 36.4968 19.2295 42 14.892 42V42M14.892 42V21.5M14.892 1H24.5C28.9183 1 32.5 4.58172 32.5 9V11.25V13.5C32.5 17.9183 28.9183 21.5 24.5 21.5H14.892M14.892 1V21.5M14.892 21.5L32.5 42" stroke="#E9F2EF" stroke-width="2"/>
</svg>
