<svg width="2131" height="1381" viewBox="0 0 2131 1381" fill="none" xmlns="http://www.w3.org/2000/svg">
<path d="M1704 682.5H1838C1842.42 682.5 1846 686.082 1846 690.5V752C1846 756.418 1842.42 760 1838 760H1766.21C1759.97 760 1756.13 753.183 1759.37 747.852L1838.17 617.907C1841.5 612.418 1849.61 612.888 1852.29 618.724L1917 760" stroke="#4682B4" stroke-width="2"/>
<path d="M1491 677.5H1625C1629.42 677.5 1633 681.082 1633 685.5V747C1633 751.418 1629.42 755 1625 755H1553.21C1546.97 755 1543.13 748.183 1546.37 742.852L1625.17 612.907C1628.5 607.418 1636.61 607.888 1639.29 613.724L1704 755" stroke="#4682B4" stroke-width="2"/>
<path d="M1278 677.5H1412C1416.42 677.5 1420 681.082 1420 685.5V747C1420 751.418 1416.42 755 1412 755H1340.21C1333.97 755 1330.13 748.183 1333.37 742.852L1412.17 612.907C1415.5 607.418 1423.61 607.888 1426.29 613.724L1491 755" stroke="#4682B4" stroke-width="2"/>
<path d="M1065 887.5H1199C1203.42 887.5 1207 891.082 1207 895.5V957C1207 961.418 1203.42 965 1199 965H1127.21C1120.97 965 1117.13 958.183 1120.37 952.852L1199.17 822.907C1202.5 817.418 1210.61 817.888 1213.29 823.724L1278 965" stroke="#4682B4" stroke-width="2"/>
<path d="M1065 682.5H1199C1203.42 682.5 1207 686.082 1207 690.5V752C1207 756.418 1203.42 760 1199 760H1127.21C1120.97 760 1117.13 753.183 1120.37 747.852L1199.17 617.907C1202.5 612.418 1210.61 612.888 1213.29 618.724L1278 760" stroke="#4682B4" stroke-width="2"/>
<path d="M1278 887.5H1412C1416.42 887.5 1420 891.082 1420 895.5V957C1420 961.418 1416.42 965 1412 965H1340.21C1333.97 965 1330.13 958.183 1333.37 952.852L1412.17 822.907C1415.5 817.418 1423.61 817.888 1426.29 823.724L1491 965" stroke="#4682B4" stroke-width="2"/>
<path d="M1491 887.5H1625C1629.42 887.5 1633 891.082 1633 895.5V957C1633 961.418 1629.42 965 1625 965H1553.21C1546.97 965 1543.13 958.183 1546.37 952.852L1625.17 822.907C1628.5 817.418 1636.61 817.888 1639.29 823.724L1704 965" stroke="#4682B4" stroke-width="2"/>
<path d="M1917 887.5H2051C2055.42 887.5 2059 891.082 2059 895.5V957C2059 961.418 2055.42 965 2051 965H1979.21C1972.97 965 1969.13 958.183 1972.37 952.852L2051.17 822.907C2054.5 817.418 2062.61 817.888 2065.29 823.724L2130 965" stroke="#4682B4" stroke-width="2"/>
<path d="M1917 682.5H2051C2055.42 682.5 2059 686.082 2059 690.5V752C2059 756.418 2055.42 760 2051 760H1979.21C1972.97 760 1969.13 753.183 1972.37 747.852L2051.17 617.907C2054.5 612.418 2062.61 612.888 2065.29 618.724L2130 760" stroke="#4682B4" stroke-width="2"/>
<path d="M1704 887.5H1838C1842.42 887.5 1846 891.082 1846 895.5V957C1846 961.418 1842.42 965 1838 965H1766.21C1759.97 965 1756.13 958.183 1759.37 952.852L1838.17 822.907C1841.5 817.418 1849.61 817.888 1852.29 823.724L1917 965" stroke="#4682B4" stroke-width="2"/>
<path d="M639 1097.5H773C777.418 1097.5 781 1101.08 781 1105.5V1167C781 1171.42 777.418 1175 773 1175H701.208C694.973 1175 691.134 1168.18 694.367 1162.85L773.173 1032.91C776.501 1027.42 784.613 1027.89 787.286 1033.72L852 1175" stroke="#4682B4" stroke-width="2"/>
<path d="M426 1092.5H560C564.418 1092.5 568 1096.08 568 1100.5V1162C568 1166.42 564.418 1170 560 1170H488.208C481.973 1170 478.134 1163.18 481.367 1157.85L560.173 1027.91C563.501 1022.42 571.613 1022.89 574.286 1028.72L639 1170" stroke="#4682B4" stroke-width="2"/>
<path d="M0 1302.5H134C138.418 1302.5 142 1306.08 142 1310.5V1372C142 1376.42 138.418 1380 134 1380H62.2078C55.9725 1380 52.1341 1373.18 55.3674 1367.85L134.173 1237.91C137.501 1232.42 145.613 1232.89 148.286 1238.72L213 1380" stroke="#4682B4" stroke-width="2"/>
<path d="M0 1097.5H134C138.418 1097.5 142 1101.08 142 1105.5V1167C142 1171.42 138.418 1175 134 1175H62.2078C55.9725 1175 52.1341 1168.18 55.3674 1162.85L134.173 1032.91C137.501 1027.42 145.613 1027.89 148.286 1033.72L213 1175" stroke="#4682B4" stroke-width="2"/>
<path d="M213 1302.5H347C351.418 1302.5 355 1306.08 355 1310.5V1372C355 1376.42 351.418 1380 347 1380H275.208C268.973 1380 265.134 1373.18 268.367 1367.85L347.173 1237.91C350.501 1232.42 358.613 1232.89 361.286 1238.72L426 1380" stroke="#4682B4" stroke-width="2"/>
<path d="M213 1092.5H347C351.418 1092.5 355 1096.08 355 1100.5V1162C355 1166.42 351.418 1170 347 1170H275.208C268.973 1170 265.134 1163.18 268.367 1157.85L347.173 1027.91C350.501 1022.42 358.613 1022.89 361.286 1028.72L426 1170" stroke="#4682B4" stroke-width="2"/>
<path d="M426 1302.5H560C564.418 1302.5 568 1306.08 568 1310.5V1372C568 1376.42 564.418 1380 560 1380H488.208C481.973 1380 478.134 1373.18 481.367 1367.85L560.173 1237.91C563.501 1232.42 571.613 1232.89 574.286 1238.72L639 1380" stroke="#4682B4" stroke-width="2"/>
<path d="M852 1302.5H986C990.418 1302.5 994 1306.08 994 1310.5V1372C994 1376.42 990.418 1380 986 1380H914.208C907.973 1380 904.134 1373.18 907.367 1367.85L986.173 1237.91C989.501 1232.42 997.613 1232.89 1000.29 1238.72L1065 1380" stroke="#4682B4" stroke-width="2"/>
<path d="M852 1097.5H986C990.418 1097.5 994 1101.08 994 1105.5V1167C994 1171.42 990.418 1175 986 1175H914.208C907.973 1175 904.134 1168.18 907.367 1162.85L986.173 1032.91C989.501 1027.42 997.613 1027.89 1000.29 1033.72L1065 1175" stroke="#4682B4" stroke-width="2"/>
<path d="M639 1302.5H773C777.418 1302.5 781 1306.08 781 1310.5V1372C781 1376.42 777.418 1380 773 1380H701.208C694.973 1380 691.134 1373.18 694.367 1367.85L773.173 1237.91C776.501 1232.42 784.613 1232.89 787.286 1238.72L852 1380" stroke="#4682B4" stroke-width="2"/>
<path d="M639 687.5H773C777.418 687.5 781 691.082 781 695.5V757C781 761.418 777.418 765 773 765H701.208C694.973 765 691.134 758.183 694.367 752.852L773.173 622.907C776.501 617.418 784.613 617.888 787.286 623.724L852 765" stroke="#4682B4" stroke-width="2"/>
<path d="M426 682.5H560C564.418 682.5 568 686.082 568 690.5V752C568 756.418 564.418 760 560 760H488.208C481.973 760 478.134 753.183 481.367 747.852L560.173 617.907C563.501 612.418 571.613 612.888 574.286 618.724L639 760" stroke="#4682B4" stroke-width="2"/>
<path d="M0 892.5H134C138.418 892.5 142 896.082 142 900.5V962C142 966.418 138.418 970 134 970H62.2078C55.9725 970 52.1341 963.183 55.3674 957.852L134.173 827.907C137.501 822.418 145.613 822.888 148.286 828.724L213 970" stroke="#4682B4" stroke-width="2"/>
<path d="M0 687.5H134C138.418 687.5 142 691.082 142 695.5V757C142 761.418 138.418 765 134 765H62.2078C55.9725 765 52.1341 758.183 55.3674 752.852L134.173 622.907C137.501 617.418 145.613 617.888 148.286 623.724L213 765" stroke="#4682B4" stroke-width="2"/>
<path d="M213 892.5H347C351.418 892.5 355 896.082 355 900.5V962C355 966.418 351.418 970 347 970H275.208C268.973 970 265.134 963.183 268.367 957.852L347.173 827.907C350.501 822.418 358.613 822.888 361.286 828.724L426 970" stroke="#4682B4" stroke-width="2"/>
<path d="M213 682.5H347C351.418 682.5 355 686.082 355 690.5V752C355 756.418 351.418 760 347 760H275.208C268.973 760 265.134 753.183 268.367 747.852L347.173 617.907C350.501 612.418 358.613 612.888 361.286 618.724L426 760" stroke="#4682B4" stroke-width="2"/>
<path d="M426 892.5H560C564.418 892.5 568 896.082 568 900.5V962C568 966.418 564.418 970 560 970H488.208C481.973 970 478.134 963.183 481.367 957.852L560.173 827.907C563.501 822.418 571.613 822.888 574.286 828.724L639 970" stroke="#4682B4" stroke-width="2"/>
<path d="M852 892.5H986C990.418 892.5 994 896.082 994 900.5V962C994 966.418 990.418 970 986 970H914.208C907.973 970 904.134 963.183 907.367 957.852L986.173 827.907C989.501 822.418 997.613 822.888 1000.29 828.724L1065 970" stroke="#4682B4" stroke-width="2"/>
<path d="M852 687.5H986C990.418 687.5 994 691.082 994 695.5V757C994 761.418 990.418 765 986 765H914.208C907.973 765 904.134 758.183 907.367 752.852L986.173 622.907C989.501 617.418 997.613 617.888 1000.29 623.724L1065 765" stroke="#4682B4" stroke-width="2"/>
<path d="M1704 472.5H1838C1842.42 472.5 1846 476.082 1846 480.5V542C1846 546.418 1842.42 550 1838 550H1766.21C1759.97 550 1756.13 543.183 1759.37 537.852L1838.17 407.907C1841.5 402.418 1849.61 402.888 1852.29 408.724L1917 550" stroke="#4682B4" stroke-width="2"/>
<path d="M1491 467.5H1625C1629.42 467.5 1633 471.082 1633 475.5V537C1633 541.418 1629.42 545 1625 545H1553.21C1546.97 545 1543.13 538.183 1546.37 532.852L1625.17 402.907C1628.5 397.418 1636.61 397.888 1639.29 403.724L1704 545" stroke="#4682B4" stroke-width="2"/>
<path d="M1278 467.5H1412C1416.42 467.5 1420 471.082 1420 475.5V537C1420 541.418 1416.42 545 1412 545H1340.21C1333.97 545 1330.13 538.183 1333.37 532.852L1412.17 402.907C1415.5 397.418 1423.61 397.888 1426.29 403.724L1491 545" stroke="#4682B4" stroke-width="2"/>
<path d="M1065 472.5H1199C1203.42 472.5 1207 476.082 1207 480.5V542C1207 546.418 1203.42 550 1199 550H1127.21C1120.97 550 1117.13 543.183 1120.37 537.852L1199.17 407.907C1202.5 402.418 1210.61 402.888 1213.29 408.724L1278 550" stroke="#4682B4" stroke-width="2"/>
<path d="M1917 472.5H2051C2055.42 472.5 2059 476.082 2059 480.5V542C2059 546.418 2055.42 550 2051 550H1979.21C1972.97 550 1969.13 543.183 1972.37 537.852L2051.17 407.907C2054.5 402.418 2062.61 402.888 2065.29 408.724L2130 550" stroke="#4682B4" stroke-width="2"/>
<path d="M639 477.5H773C777.418 477.5 781 481.082 781 485.5V547C781 551.418 777.418 555 773 555H701.208C694.973 555 691.134 548.183 694.367 542.852L773.173 412.907C776.501 407.418 784.613 407.888 787.286 413.724L852 555" stroke="#4682B4" stroke-width="2"/>
<path d="M426 472.5H560C564.418 472.5 568 476.082 568 480.5V542C568 546.418 564.418 550 560 550H488.208C481.973 550 478.134 543.183 481.367 537.852L560.173 407.907C563.501 402.418 571.613 402.888 574.286 408.724L639 550" stroke="#4682B4" stroke-width="2"/>
<path d="M0 477.5H134C138.418 477.5 142 481.082 142 485.5V547C142 551.418 138.418 555 134 555H62.2078C55.9725 555 52.1341 548.183 55.3674 542.852L134.173 412.907C137.501 407.418 145.613 407.888 148.286 413.724L213 555" stroke="#4682B4" stroke-width="2"/>
<path d="M213 472.5H347C351.418 472.5 355 476.082 355 480.5V542C355 546.418 351.418 550 347 550H275.208C268.973 550 265.134 543.183 268.367 537.852L347.173 407.907C350.501 402.418 358.613 402.888 361.286 408.724L426 550" stroke="#4682B4" stroke-width="2"/>
<path d="M852 477.5H986C990.418 477.5 994 481.082 994 485.5V547C994 551.418 990.418 555 986 555H914.208C907.973 555 904.134 548.183 907.367 542.852L986.173 412.907C989.501 407.418 997.613 407.888 1000.29 413.724L1065 555" stroke="#4682B4" stroke-width="2"/>
<path d="M1704 262.5H1838C1842.42 262.5 1846 266.082 1846 270.5V332C1846 336.418 1842.42 340 1838 340H1766.21C1759.97 340 1756.13 333.183 1759.37 327.852L1838.17 197.907C1841.5 192.418 1849.61 192.888 1852.29 198.724L1917 340" stroke="#4682B4" stroke-width="2"/>
<path d="M1491 257.5H1625C1629.42 257.5 1633 261.082 1633 265.5V327C1633 331.418 1629.42 335 1625 335H1553.21C1546.97 335 1543.13 328.183 1546.37 322.852L1625.17 192.907C1628.5 187.418 1636.61 187.888 1639.29 193.724L1704 335" stroke="#4682B4" stroke-width="2"/>
<path d="M1278 257.5H1412C1416.42 257.5 1420 261.082 1420 265.5V327C1420 331.418 1416.42 335 1412 335H1340.21C1333.97 335 1330.13 328.183 1333.37 322.852L1412.17 192.907C1415.5 187.418 1423.61 187.888 1426.29 193.724L1491 335" stroke="#4682B4" stroke-width="2"/>
<path d="M1065 262.5H1199C1203.42 262.5 1207 266.082 1207 270.5V332C1207 336.418 1203.42 340 1199 340H1127.21C1120.97 340 1117.13 333.183 1120.37 327.852L1199.17 197.907C1202.5 192.418 1210.61 192.888 1213.29 198.724L1278 340" stroke="#4682B4" stroke-width="2"/>
<path d="M1917 262.5H2051C2055.42 262.5 2059 266.082 2059 270.5V332C2059 336.418 2055.42 340 2051 340H1979.21C1972.97 340 1969.13 333.183 1972.37 327.852L2051.17 197.907C2054.5 192.418 2062.61 192.888 2065.29 198.724L2130 340" stroke="#4682B4" stroke-width="2"/>
<path d="M639 267.5H773C777.418 267.5 781 271.082 781 275.5V337C781 341.418 777.418 345 773 345H701.208C694.973 345 691.134 338.183 694.367 332.852L773.173 202.907C776.501 197.418 784.613 197.888 787.286 203.724L852 345" stroke="#4682B4" stroke-width="2"/>
<path d="M426 262.5H560C564.418 262.5 568 266.082 568 270.5V332C568 336.418 564.418 340 560 340H488.208C481.973 340 478.134 333.183 481.367 327.852L560.173 197.907C563.501 192.418 571.613 192.888 574.286 198.724L639 340" stroke="#4682B4" stroke-width="2"/>
<path d="M0 267.5H134C138.418 267.5 142 271.082 142 275.5V337C142 341.418 138.418 345 134 345H62.2078C55.9725 345 52.1341 338.183 55.3674 332.852L134.173 202.907C137.501 197.418 145.613 197.888 148.286 203.724L213 345" stroke="#4682B4" stroke-width="2"/>
<path d="M1704 82.5H1838C1842.42 82.5 1846 86.0817 1846 90.5V152C1846 156.418 1842.42 160 1838 160H1766.21C1759.97 160 1756.13 153.183 1759.37 147.852L1838.17 17.9068C1841.5 12.4183 1849.61 12.8877 1852.29 18.7236L1917 160" stroke="#4682B4" stroke-width="2"/>
<path d="M1491 77.5H1625C1629.42 77.5 1633 81.0817 1633 85.5V147C1633 151.418 1629.42 155 1625 155H1553.21C1546.97 155 1543.13 148.183 1546.37 142.852L1625.17 12.9068C1628.5 7.41831 1636.61 7.88773 1639.29 13.7236L1704 155" stroke="#4682B4" stroke-width="2"/>
<path d="M1278 77.5H1412C1416.42 77.5 1420 81.0817 1420 85.5V147C1420 151.418 1416.42 155 1412 155H1340.21C1333.97 155 1330.13 148.183 1333.37 142.852L1412.17 12.9068C1415.5 7.41831 1423.61 7.88773 1426.29 13.7236L1491 155" stroke="#4682B4" stroke-width="2"/>
<path d="M1065 82.5H1199C1203.42 82.5 1207 86.0817 1207 90.5V152C1207 156.418 1203.42 160 1199 160H1127.21C1120.97 160 1117.13 153.183 1120.37 147.852L1199.17 17.9068C1202.5 12.4183 1210.61 12.8877 1213.29 18.7236L1278 160" stroke="#4682B4" stroke-width="2"/>
<path d="M1917 82.5H2051C2055.42 82.5 2059 86.0817 2059 90.5V152C2059 156.418 2055.42 160 2051 160H1979.21C1972.97 160 1969.13 153.183 1972.37 147.852L2051.17 17.9068C2054.5 12.4183 2062.61 12.8877 2065.29 18.7236L2130 160" stroke="#4682B4" stroke-width="2"/>
<path d="M639 87.5H773C777.418 87.5 781 91.0817 781 95.5V157C781 161.418 777.418 165 773 165H701.208C694.973 165 691.134 158.183 694.367 152.852L773.173 22.9068C776.501 17.4183 784.613 17.8877 787.286 23.7236L852 165" stroke="#4682B4" stroke-width="2"/>
<path d="M426 82.5H560C564.418 82.5 568 86.0817 568 90.5V152C568 156.418 564.418 160 560 160H488.208C481.973 160 478.134 153.183 481.367 147.852L560.173 17.9068C563.501 12.4183 571.613 12.8877 574.286 18.7236L639 160" stroke="#4682B4" stroke-width="2"/>
<path d="M0 87.5H134C138.418 87.5 142 91.0817 142 95.5V157C142 161.418 138.418 165 134 165H62.2078C55.9725 165 52.1341 158.183 55.3674 152.852L134.173 22.9068C137.501 17.4183 145.613 17.8877 148.286 23.7236L213 165" stroke="#4682B4" stroke-width="2"/>
<path d="M213 262.5H347C351.418 262.5 355 266.082 355 270.5V332C355 336.418 351.418 340 347 340H275.208C268.973 340 265.134 333.183 268.367 327.852L347.173 197.907C350.501 192.418 358.613 192.888 361.286 198.724L426 340" stroke="#4682B4" stroke-width="2"/>
<path d="M213 87.5H347C351.418 87.5 355 91.0817 355 95.5V157C355 161.418 351.418 165 347 165H275.208C268.973 165 265.134 158.183 268.367 152.852L347.173 22.9068C350.501 17.4183 358.613 17.8877 361.286 23.7236L426 165" stroke="#4682B4" stroke-width="2"/>
<path d="M852 267.5H986C990.418 267.5 994 271.082 994 275.5V337C994 341.418 990.418 345 986 345H914.208C907.973 345 904.134 338.183 907.367 332.852L986.173 202.907C989.501 197.418 997.613 197.888 1000.29 203.724L1065 345" stroke="#4682B4" stroke-width="2"/>
<path d="M852 82.5H986C990.418 82.5 994 86.0817 994 90.5V152C994 156.418 990.418 160 986 160H914.208C907.973 160 904.134 153.183 907.367 147.852L986.173 17.9068C989.501 12.4183 997.613 12.8877 1000.29 18.7236L1065 160" stroke="#4682B4" stroke-width="2"/>
<path d="M639 892.5H773C777.418 892.5 781 896.082 781 900.5V962C781 966.418 777.418 970 773 970H701.208C694.973 970 691.134 963.183 694.367 957.852L773.173 827.907C776.501 822.418 784.613 822.888 787.286 828.724L852 970" stroke="#4682B4" stroke-width="2"/>
<path d="M1704 1097.5H1838C1842.42 1097.5 1846 1101.08 1846 1105.5V1167C1846 1171.42 1842.42 1175 1838 1175H1766.21C1759.97 1175 1756.13 1168.18 1759.37 1162.85L1838.17 1032.91C1841.5 1027.42 1849.61 1027.89 1852.29 1033.72L1917 1175" stroke="#4682B4" stroke-width="2"/>
<path d="M1491 1092.5H1625C1629.42 1092.5 1633 1096.08 1633 1100.5V1162C1633 1166.42 1629.42 1170 1625 1170H1553.21C1546.97 1170 1543.13 1163.18 1546.37 1157.85L1625.17 1027.91C1628.5 1022.42 1636.61 1022.89 1639.29 1028.72L1704 1170" stroke="#4682B4" stroke-width="2"/>
<path d="M1065 1302.5H1199C1203.42 1302.5 1207 1306.08 1207 1310.5V1372C1207 1376.42 1203.42 1380 1199 1380H1127.21C1120.97 1380 1117.13 1373.18 1120.37 1367.85L1199.17 1237.91C1202.5 1232.42 1210.61 1232.89 1213.29 1238.72L1278 1380" stroke="#4682B4" stroke-width="2"/>
<path d="M1065 1097.5H1199C1203.42 1097.5 1207 1101.08 1207 1105.5V1167C1207 1171.42 1203.42 1175 1199 1175H1127.21C1120.97 1175 1117.13 1168.18 1120.37 1162.85L1199.17 1032.91C1202.5 1027.42 1210.61 1027.89 1213.29 1033.72L1278 1175" stroke="#4682B4" stroke-width="2"/>
<path d="M1278 1302.5H1412C1416.42 1302.5 1420 1306.08 1420 1310.5V1372C1420 1376.42 1416.42 1380 1412 1380H1340.21C1333.97 1380 1330.13 1373.18 1333.37 1367.85L1412.17 1237.91C1415.5 1232.42 1423.61 1232.89 1426.29 1238.72L1491 1380" stroke="#4682B4" stroke-width="2"/>
<path d="M1278 1092.5H1412C1416.42 1092.5 1420 1096.08 1420 1100.5V1162C1420 1166.42 1416.42 1170 1412 1170H1340.21C1333.97 1170 1330.13 1163.18 1333.37 1157.85L1412.17 1027.91C1415.5 1022.42 1423.61 1022.89 1426.29 1028.72L1491 1170" stroke="#4682B4" stroke-width="2"/>
<path d="M1491 1302.5H1625C1629.42 1302.5 1633 1306.08 1633 1310.5V1372C1633 1376.42 1629.42 1380 1625 1380H1553.21C1546.97 1380 1543.13 1373.18 1546.37 1367.85L1625.17 1237.91C1628.5 1232.42 1636.61 1232.89 1639.29 1238.72L1704 1380" stroke="#4682B4" stroke-width="2"/>
<path d="M1917 1302.5H2051C2055.42 1302.5 2059 1306.08 2059 1310.5V1372C2059 1376.42 2055.42 1380 2051 1380H1979.21C1972.97 1380 1969.13 1373.18 1972.37 1367.85L2051.17 1237.91C2054.5 1232.42 2062.61 1232.89 2065.29 1238.72L2130 1380" stroke="#4682B4" stroke-width="2"/>
<path d="M1917 1097.5H2051C2055.42 1097.5 2059 1101.08 2059 1105.5V1167C2059 1171.42 2055.42 1175 2051 1175H1979.21C1972.97 1175 1969.13 1168.18 1972.37 1162.85L2051.17 1032.91C2054.5 1027.42 2062.61 1027.89 2065.29 1033.72L2130 1175" stroke="#4682B4" stroke-width="2"/>
<path d="M1704 1302.5H1838C1842.42 1302.5 1846 1306.08 1846 1310.5V1372C1846 1376.42 1842.42 1380 1838 1380H1766.21C1759.97 1380 1756.13 1373.18 1759.37 1367.85L1838.17 1237.91C1841.5 1232.42 1849.61 1232.89 1852.29 1238.72L1917 1380" stroke="#4682B4" stroke-width="2"/>
</svg>
